Coordinates
version=1
nRows=15
nColumns=34
inDegrees=yes

Units are S.I. units (second, meters, Newtons, ...)
If the header above contains a line with 'inDegrees', this indicates whether rotational values are in degrees (yes) or radians (no).

endheader
time	pelvis_tilt	pelvis_list	pelvis_rotation	pelvis_tx	pelvis_ty	pelvis_tz	hip_flexion_r	hip_adduction_r	hip_rotation_r	knee_angle_r	ankle_angle_r	subtalar_angle_r	mtp_angle_r	hip_flexion_l	hip_adduction_l	hip_rotation_l	knee_angle_l	ankle_angle_l	subtalar_angle_l	mtp_angle_l	lumbar_extension	lumbar_bending	lumbar_rotation	arm_flex_r	arm_add_r	arm_rot_r	elbow_flex_r	pro_sup_r	arm_flex_l	arm_add_l	arm_rot_l	elbow_flex_l	pro_sup_l
      8.90000000	     -5.89663107	      2.37933453	     -1.80337373	      0.00387466	      0.71940751	     -0.06032505	     47.55599925	     -7.89805325	      0.95026099	     58.17958577	      8.14733958	    -31.09709945	      0.00000000	     49.05133857	     -8.23259483	     -0.65177868	     61.34624179	     12.54811353	    -20.94889054	      0.00000000	    -33.56304257	      1.54917865	      0.38777070	     98.52471646	      1.71380351	     70.15123431	     96.04466279	     84.63021989	    107.80104789	      1.94473437	     85.54580830	    117.31036595	     71.69056136
      8.91666670	     -5.44517896	      2.29981505	     -2.01814656	      0.00539840	      0.71227976	     -0.06183880	     48.06223353	     -7.86135496	      1.35473537	     60.15881780	      9.11770132	    -31.51870903	      0.00000000	     50.09224459	     -8.46367532	     -0.43485000	     63.86247228	     13.05068479	    -21.63933069	      0.00000000	    -34.73747290	      1.54077078	      0.53627136	     98.52559655	      1.65714252	     70.00492341	     95.69715177	     84.48341751	    107.48449343	      2.59330046	     85.88737224	    117.71100488	     71.64651383
      8.93333330	     -5.37093235	      2.21048716	     -2.44217659	      0.00331513	      0.70114711	     -0.06222328	     49.70594463	     -7.78536603	      1.60708408	     62.75050321	     10.81159827	    -30.70918318	      0.00000000	     51.66743675	     -8.86260332	     -0.24191097	     66.23520951	     13.45486904	    -22.15443612	      0.00000000	    -35.48686358	      1.46162204	      0.42217124	     98.62033930	      2.25250123	     69.91785127	     96.26623369	     83.96938861	    108.01476583	      2.13406421	     86.37135727	    117.76662827	     71.41615241
      8.95000000	     -5.29855136	      2.06672905	     -2.80481320	     -0.00064047	      0.69203639	     -0.06177268	     51.53212841	     -7.52688128	      1.88744658	     65.26479119	     12.55255268	    -29.86178566	      0.00000000	     53.36687451	     -9.31905403	     -0.04301221	     68.80716860	     13.91998480	    -22.65724213	      0.00000000	    -36.41949671	      1.40280399	      0.53112691	     99.02685295	      2.38916161	     69.99113782	     97.26639013	     83.55507531	    108.62300612	      1.86142279	     86.23038772	    117.55630461	     71.18051225
      8.96666670	     -5.18308297	      1.84131444	     -2.96829046	     -0.00124746	      0.68315304	     -0.06182373	     52.94984268	     -7.22017082	      2.23599871	     67.70136506	     14.85169846	    -28.53870163	      0.00000000	     54.96997946	     -9.78429878	      0.31771876	     71.30806983	     14.55579978	    -22.80869429	      0.00000000	    -37.37265885	      1.44648173	      0.76403469	     99.35534053	      1.99036709	     69.99823750	     98.71692125	     83.23840318	    109.14910444	      2.05459314	     86.35900048	    117.44382095	     71.00487458
      8.98333330	     -4.93399338	      1.80193540	     -3.10379651	     -0.00397903	      0.67370669	     -0.06183194	     54.35036765	     -7.14351664	      2.65695135	     70.33749637	     16.89077041	    -27.47866593	      0.00000000	     56.40794987	    -10.09127857	      0.55374348	     73.71438433	     15.45170392	    -22.59445925	      0.00000000	    -38.43357321	      1.33795073	      1.09992884	     99.90595525	      1.76339018	     70.63710052	     99.86206749	     82.99692241	    109.45325540	      2.38187926	     86.52966632	    117.26965476	     70.84111645
      9.00000000	     -4.85195902	      1.76930523	     -3.31291633	     -0.00826917	      0.66285100	     -0.06302125	     56.28626894	     -7.03175863	      3.10720954	     72.99134534	     18.24253160	    -26.70247148	      0.00000000	     58.15423642	    -10.33559308	      0.86962074	     76.25749281	     16.22777833	    -22.45712751	      0.00000000	    -39.37157338	      1.14472220	      1.22082730	    100.50544740	      1.65249623	     70.44747721	     99.74402242	     82.69754347	    110.11669357	      2.69143691	     86.42132312	    117.24220193	     70.64727938
      9.01666670	     -4.64908239	      1.83561877	     -3.58650228	     -0.00978259	      0.65472029	     -0.06272750	     58.19536440	     -6.97268196	      3.38757258	     75.60722621	     18.56242550	    -26.95361550	      0.00000000	     59.68472134	    -10.50634456	      1.17060380	     78.37553522	     16.68699885	    -22.67029368	      0.00000000	    -40.56837588	      0.88040703	      1.35567516	    101.33901980	      1.65334000	     70.12829084	     99.64968562	     82.56860360	    110.90318896	      2.63239561	     86.09633849	    117.13002798	     70.55861684
      9.03333330	     -4.93418464	      1.93497113	     -3.66812039	     -0.01171742	      0.64488016	     -0.06289538	     60.26362750	     -7.01942545	      3.66503135	     77.93679101	     18.30627481	    -27.62988344	      0.00000000	     61.78020387	    -10.57035438	      1.47539681	     80.60841181	     17.03987765	    -22.80445874	      0.00000000	    -41.11744719	      0.57801285	      1.19877835	    101.95847738	      1.49109733	     69.64042616	     99.88521909	     82.24351398	    111.41513441	      2.47284035	     85.92283180	    117.34836943	     70.33645899
      9.05000000	     -4.88345745	      1.94818240	     -3.67690245	     -0.01404967	      0.63454958	     -0.06240437	     61.79755275	     -6.96596109	      4.03801738	     80.12036703	     18.41645296	    -28.13921382	      0.00000000	     63.46897150	    -10.68913666	      1.86235640	     82.82825561	     17.31582583	    -22.98798319	      0.00000000	    -42.07080289	      0.42994683	      0.89419451	    102.79362256	      1.63641716	     68.83635062	     99.91899616	     82.09256921	    112.30876614	      2.19211450	     85.17423480	    116.94804298	     70.20511745
      9.06666670	     -5.08918351	      2.03970887	     -3.58777901	     -0.01391672	      0.62748532	     -0.06273533	     63.46376875	     -6.84870657	      4.51795419	     81.89359886	     18.28936154	    -28.56019496	      0.00000000	     64.96020212	    -10.68136747	      2.13275105	     84.64652543	     17.76213764	    -22.60868233	      0.00000000	    -42.54638209	      0.23480292	      0.80476477	    102.94327194	      1.45149560	     68.67767112	     99.79579741	     81.85353956	    112.26972465	      2.50278587	     85.45404804	    117.35687132	     70.03441544
      9.08333330	     -5.37540785	      2.05060740	     -3.52017732	     -0.01365131	      0.61521957	     -0.06272833	     65.11526111	     -6.75719274	      4.95076804	     84.06584515	     19.11938861	    -28.13191194	      0.00000000	     66.74363222	    -10.86527800	      2.46241374	     86.77833680	     18.80661185	    -22.15687704	      0.00000000	    -42.81429999	      0.19978659	      0.78101113	    103.17141773	      1.42745608	     68.78512660	    100.98871518	     81.67600258	    112.40330780	      2.41562287	     85.64382166	    117.51715734	     69.89915403
      9.10000000	     -5.71368888	      2.12190279	     -3.37721189	     -0.01332800	      0.60523011	     -0.06235137	     66.66479684	     -6.73790480	      5.39981428	     86.31304284	     20.99553306	    -26.83298288	      0.00000000	     68.72693545	    -10.95811544	      2.77018699	     89.09946912	     19.90181300	    -21.55743095	      0.00000000	    -42.94798902	      0.12758633	      0.86413516	    103.33602912	      1.16983423	     69.03928371	    102.41859800	     81.56369489	    112.46435330	      2.49587131	     85.59547655	    117.64542527	     69.82239169
      9.11666670	     -6.02569610	      2.24684983	     -3.37433446	     -0.01867849	      0.59455602	     -0.06189555	     68.67706734	     -6.65906262	      5.68136864	     88.40841065	     22.62611148	    -25.30031659	      0.00000000	     70.74508336	    -11.03599116	      3.04498750	     91.08640689	     20.43873618	    -21.13999355	      0.00000000	    -43.18055804	     -0.10793847	      0.81456696	    103.61111025	      1.15225139	     69.03982362	    103.54325593	     81.48594300	    113.00777052	      2.37372203	     85.41135303	    117.75815675	     69.80917232
      9.13333330	     -6.43499202	      2.35781379	     -3.39635724	     -0.02019686	      0.58293807	     -0.06098216	     70.94538532	     -6.64385873	      5.69629989	     90.80480226	     23.47678665	    -24.67398588	      0.00000000	     73.01050272	    -11.15489312	      3.41408887	     93.19059449	     20.71917233	    -21.07386265	      0.00000000	    -43.32687858	     -0.28363628	      0.80021530	    104.14114262	      1.37442123	     69.41534541	    104.56512026	     81.45693083	    113.77974964	      2.19927916	     85.32098348	    117.98348902	     69.85336057
